<svg xmlns="http://www.w3.org/2000/svg" width="517.276" height="19.328" viewBox="0 0 517.276 19.328">
  <g id="C6B0E714-3681-48BD-8D7F-309B05BE033E" transform="translate(-52.853 -410.761)">
    <g id="Group_16422" data-name="Group 16422" transform="translate(52.853 410.763)">
      <g id="Group_16421" data-name="Group 16421">
        <g id="Group_16420" data-name="Group 16420" transform="translate(0 0)">
          <path id="Path_10961" data-name="Path 10961" d="M7.875-9.538H5.94V-25.551h-3.7V-9.538H.266A.247.247,0,0,0,0-9.322v2.874a.265.265,0,0,0,.266.219H7.875a.247.247,0,0,0,.266-.219V-9.322C8.141-9.44,8.043-9.538,7.875-9.538Zm0,0" transform="translate(0 25.551)" fill="#942826"/>
        </g>
      </g>
    </g>
    <g id="Group_16425" data-name="Group 16425" transform="translate(61.402 410.763)">
      <g id="Group_16424" data-name="Group 16424">
        <g id="Group_16423" data-name="Group 16423" transform="translate(0 0)">
          <path id="Path_10962" data-name="Path 10962" d="M15.989-25.551H12.873a.274.274,0,0,0-.289.216v12.584L3.672-25.48c-.024-.047-.168-.071-.219-.071H.242A.26.26,0,0,0,0-25.335v14.468H3.7v-8.165L12.584-6.3c.024.05.168.074.219.074h3.187a.247.247,0,0,0,.266-.219V-25.335A.247.247,0,0,0,15.989-25.551Zm0,0" transform="translate(0 25.551)" fill="#942826"/>
        </g>
      </g>
    </g>
    <g id="Group_16428" data-name="Group 16428" transform="translate(78.476 410.763)">
      <g id="Group_16427" data-name="Group 16427" transform="translate(0)">
        <g id="Group_16426" data-name="Group 16426" transform="translate(0 0)">
          <path id="Path_10963" data-name="Path 10963" d="M3.985-18.547v12.1a.247.247,0,0,0,.266.219H7.367a.274.274,0,0,0,.289-.219v-12.1Zm-3.719-3.7H11.352c.168,0,.266-.1.266-.219v-2.874a.247.247,0,0,0-.266-.216H.266A.266.266,0,0,0,0-25.335v2.874A.247.247,0,0,0,.266-22.242Zm0,0" transform="translate(0 25.551)" fill="#942826"/>
        </g>
      </g>
    </g>
    <g id="Group_16431" data-name="Group 16431" transform="translate(90.672 410.763)">
      <g id="Group_16430" data-name="Group 16430" transform="translate(0)">
        <g id="Group_16429" data-name="Group 16429" transform="translate(0 0)">
          <path id="Path_10964" data-name="Path 10964" d="M9.178-9.827H3.7v-4.348h7.583a.263.263,0,0,0,.266-.219V-17.46a.245.245,0,0,0-.266-.219H3.7V-22.05H9.178v-3.5H.266A.266.266,0,0,0,0-25.335V-6.448a.265.265,0,0,0,.266.219H9.178Zm0,0" transform="translate(0 25.551)" fill="#942826"/>
        </g>
      </g>
    </g>
    <g id="Group_16434" data-name="Group 16434" transform="translate(102.796 410.763)">
      <g id="Group_16433" data-name="Group 16433" transform="translate(0)">
        <g id="Group_16432" data-name="Group 16432" transform="translate(0 0)">
          <path id="Path_10965" data-name="Path 10965" d="M10.433-9.827H0v3.379a.265.265,0,0,0,.266.219H10.433a.245.245,0,0,0,.266-.219v-3.14A.247.247,0,0,0,10.433-9.827ZM3.7-13.523V-25.335a.24.24,0,0,0-.242-.216H.266A.266.266,0,0,0,0-25.335v11.813Zm0,0" transform="translate(0 25.551)" fill="#942826"/>
        </g>
      </g>
    </g>
    <g id="Group_16437" data-name="Group 16437" transform="translate(114.05 410.763)">
      <g id="Group_16436" data-name="Group 16436" transform="translate(0)">
        <g id="Group_16435" data-name="Group 16435" transform="translate(0 0)">
          <path id="Path_10966" data-name="Path 10966" d="M10.433-9.827H0v3.379a.265.265,0,0,0,.266.219H10.433a.245.245,0,0,0,.266-.219v-3.14A.247.247,0,0,0,10.433-9.827ZM3.7-13.523V-25.335a.24.24,0,0,0-.242-.216H.266A.266.266,0,0,0,0-25.335v11.813Zm0,0" transform="translate(0 25.551)" fill="#942826"/>
        </g>
      </g>
    </g>
    <g id="Group_16440" data-name="Group 16440" transform="translate(125.304 410.763)">
      <g id="Group_16439" data-name="Group 16439">
        <g id="Group_16438" data-name="Group 16438" transform="translate(0 0)">
          <path id="Path_10967" data-name="Path 10967" d="M7.875-9.538H5.94V-25.551h-3.7V-9.538H.266A.247.247,0,0,0,0-9.322v2.874a.265.265,0,0,0,.266.219H7.875a.247.247,0,0,0,.266-.219V-9.322C8.141-9.44,8.043-9.538,7.875-9.538Zm0,0" transform="translate(0 25.551)" fill="#942826"/>
        </g>
      </g>
    </g>
    <g id="Group_16443" data-name="Group 16443" transform="translate(133.853 410.763)">
      <g id="Group_16442" data-name="Group 16442">
        <g id="Group_16441" data-name="Group 16441" transform="translate(0 0)">
          <path id="Path_10968" data-name="Path 10968" d="M14.734-22v-3.335a.247.247,0,0,0-.266-.216h-3.14C6.522-25.551,0-24.151,0-15.892,0-7.317,6.593-6.229,11.328-6.229h3.14a.247.247,0,0,0,.266-.219V-18.281H7.317v3.7h3.722v4.83c-4.2.219-7.32-1.545-7.32-6.135,0-5.964,4.977-6.206,7.32-6.109Zm0,0" transform="translate(0 25.551)" fill="#942826"/>
        </g>
      </g>
    </g>
    <g id="Group_16446" data-name="Group 16446" transform="translate(149.334 410.763)">
      <g id="Group_16445" data-name="Group 16445">
        <g id="Group_16444" data-name="Group 16444" transform="translate(0 0)">
          <path id="Path_10969" data-name="Path 10969" d="M9.178-9.827H3.7v-4.348h7.583a.263.263,0,0,0,.266-.219V-17.46a.245.245,0,0,0-.266-.219H3.7V-22.05H9.178v-3.5H.266A.266.266,0,0,0,0-25.335V-6.448a.265.265,0,0,0,.266.219H9.178Zm0,0" transform="translate(0 25.551)" fill="#942826"/>
        </g>
      </g>
    </g>
    <g id="Group_16449" data-name="Group 16449" transform="translate(161.457 410.763)">
      <g id="Group_16448" data-name="Group 16448">
        <g id="Group_16447" data-name="Group 16447" transform="translate(0 0)">
          <path id="Path_10970" data-name="Path 10970" d="M15.989-25.551H12.873a.274.274,0,0,0-.289.216v12.584L3.672-25.48c-.024-.047-.168-.071-.219-.071H.242A.26.26,0,0,0,0-25.335v14.468H3.7v-8.165L12.584-6.3c.024.05.168.074.219.074h3.187a.247.247,0,0,0,.266-.219V-25.335A.247.247,0,0,0,15.989-25.551Zm0,0" transform="translate(0 25.551)" fill="#942826"/>
        </g>
      </g>
    </g>
    <g id="Group_16452" data-name="Group 16452" transform="translate(178.531 410.763)">
      <g id="Group_16451" data-name="Group 16451">
        <g id="Group_16450" data-name="Group 16450" transform="translate(0 0)">
          <path id="Path_10971" data-name="Path 10971" d="M3.985-18.547v12.1a.247.247,0,0,0,.266.219H7.367a.274.274,0,0,0,.289-.219v-12.1Zm-3.719-3.7H11.352c.168,0,.266-.1.266-.219v-2.874a.247.247,0,0,0-.266-.216H.266A.266.266,0,0,0,0-25.335v2.874A.247.247,0,0,0,.266-22.242Zm0,0" transform="translate(0 25.551)" fill="#942826"/>
        </g>
      </g>
    </g>
    <g id="Group_16455" data-name="Group 16455" transform="translate(196.765 410.763)">
      <g id="Group_16454" data-name="Group 16454" transform="translate(0)">
        <g id="Group_16453" data-name="Group 16453" transform="translate(0 0)">
          <path id="Path_10972" data-name="Path 10972" d="M10.073-21.953,7.535-14.875,3.769-25.406a.225.225,0,0,0-.242-.145H.242c-.195,0-.289.145-.219.289L7.293-6.351a.273.273,0,0,0,.461,0l6.038-15.6Zm0,0" transform="translate(0 25.551)" fill="#942826"/>
        </g>
      </g>
    </g>
    <g id="Group_16458" data-name="Group 16458" transform="translate(211.256 410.762)">
      <g id="Group_16457" data-name="Group 16457" transform="translate(0)">
        <g id="Group_16456" data-name="Group 16456" transform="translate(0 0)">
          <path id="Path_10973" data-name="Path 10973" d="M15.168-6.519,7.825-25.407a.271.271,0,0,0-.481,0L.024-6.519c-.071.145.024.289.242.289H3.574a.241.241,0,0,0,.242-.145L7.583-17.147,11.4-6.375a.233.233,0,0,0,.219.145H14.95C15.121-6.23,15.239-6.375,15.168-6.519Zm0,0" transform="translate(-0.001 25.553)" fill="#942826"/>
        </g>
      </g>
    </g>
    <g id="Group_16461" data-name="Group 16461" transform="translate(227.194 410.763)">
      <g id="Group_16460" data-name="Group 16460">
        <g id="Group_16459" data-name="Group 16459" transform="translate(0 0)">
          <path id="Path_10974" data-name="Path 10974" d="M11.039-9.78c-2.342.1-7.32-.145-7.32-6.112,0-4.587,3.116-6.351,7.32-6.132v4.274h3.7v-7.586a.247.247,0,0,0-.266-.216h-3.14C6.593-25.551,0-24.464,0-15.892,0-7.63,6.522-6.229,11.328-6.229h3.14a.247.247,0,0,0,.266-.219V-9.78Zm0,0" transform="translate(0 25.551)" fill="#942826"/>
        </g>
      </g>
    </g>
    <g id="Group_16464" data-name="Group 16464" transform="translate(242.675 410.763)">
      <g id="Group_16463" data-name="Group 16463">
        <g id="Group_16462" data-name="Group 16462" transform="translate(0 0)">
          <path id="Path_10975" data-name="Path 10975" d="M11.039-9.78c-2.342.1-7.32-.145-7.32-6.112,0-4.587,3.116-6.351,7.32-6.132v4.274h3.7v-7.586a.247.247,0,0,0-.266-.216h-3.14C6.593-25.551,0-24.464,0-15.892,0-7.63,6.522-6.229,11.328-6.229h3.14a.247.247,0,0,0,.266-.219V-9.78Zm0,0" transform="translate(0 25.551)" fill="#942826"/>
        </g>
      </g>
    </g>
    <g id="Group_16467" data-name="Group 16467" transform="translate(258.155 410.763)">
      <g id="Group_16466" data-name="Group 16466">
        <g id="Group_16465" data-name="Group 16465" transform="translate(0 0)">
          <path id="Path_10976" data-name="Path 10976" d="M7.875-9.538H5.94V-25.551h-3.7V-9.538H.266A.247.247,0,0,0,0-9.322v2.874a.265.265,0,0,0,.266.219H7.875a.247.247,0,0,0,.266-.219V-9.322C8.141-9.44,8.043-9.538,7.875-9.538Zm0,0" transform="translate(0 25.551)" fill="#942826"/>
        </g>
      </g>
    </g>
    <g id="Group_16470" data-name="Group 16470" transform="translate(266.704 410.763)">
      <g id="Group_16469" data-name="Group 16469">
        <g id="Group_16468" data-name="Group 16468" transform="translate(0 0)">
          <path id="Path_10977" data-name="Path 10977" d="M15.989-25.551H12.873a.274.274,0,0,0-.289.216v12.584L3.672-25.48c-.024-.047-.168-.071-.219-.071H.242A.26.26,0,0,0,0-25.335v14.468H3.7v-8.165L12.584-6.3c.024.05.168.074.219.074h3.187a.247.247,0,0,0,.266-.219V-25.335A.247.247,0,0,0,15.989-25.551Zm0,0" transform="translate(0 25.551)" fill="#942826"/>
        </g>
      </g>
    </g>
    <g id="Group_16473" data-name="Group 16473" transform="translate(283.779 410.762)">
      <g id="Group_16472" data-name="Group 16472" transform="translate(0)">
        <g id="Group_16471" data-name="Group 16471" transform="translate(0 0)">
          <path id="Path_10978" data-name="Path 10978" d="M15.168-6.519,7.825-25.407a.271.271,0,0,0-.481,0L.024-6.519c-.071.145.024.289.242.289H3.574a.241.241,0,0,0,.242-.145L7.583-17.147,11.4-6.375a.233.233,0,0,0,.219.145H14.95C15.121-6.23,15.239-6.375,15.168-6.519Zm0,0" transform="translate(-0.001 25.553)" fill="#942826"/>
        </g>
      </g>
    </g>
    <g id="Group_16476" data-name="Group 16476" transform="translate(299.718 410.763)">
      <g id="Group_16475" data-name="Group 16475">
        <g id="Group_16474" data-name="Group 16474" transform="translate(0 0)">
          <path id="Path_10979" data-name="Path 10979" d="M3.985-18.547v12.1a.247.247,0,0,0,.266.219H7.367a.274.274,0,0,0,.289-.219v-12.1Zm-3.719-3.7H11.352c.168,0,.266-.1.266-.219v-2.874a.247.247,0,0,0-.266-.216H.266A.266.266,0,0,0,0-25.335v2.874A.247.247,0,0,0,.266-22.242Zm0,0" transform="translate(0 25.551)" fill="#942826"/>
        </g>
      </g>
    </g>
    <g id="Group_16479" data-name="Group 16479" transform="translate(311.914 410.763)">
      <g id="Group_16478" data-name="Group 16478">
        <g id="Group_16477" data-name="Group 16477" transform="translate(0 0)">
          <path id="Path_10980" data-name="Path 10980" d="M7.875-9.538H5.94V-25.551h-3.7V-9.538H.266A.247.247,0,0,0,0-9.322v2.874a.265.265,0,0,0,.266.219H7.875a.247.247,0,0,0,.266-.219V-9.322C8.141-9.44,8.043-9.538,7.875-9.538Zm0,0" transform="translate(0 25.551)" fill="#942826"/>
        </g>
      </g>
    </g>
    <g id="Group_16482" data-name="Group 16482" transform="translate(320.463 410.763)">
      <g id="Group_16481" data-name="Group 16481" transform="translate(0)">
        <g id="Group_16480" data-name="Group 16480" transform="translate(0 0)">
          <path id="Path_10981" data-name="Path 10981" d="M11.11-15.841A1.815,1.815,0,0,0,9.3-17.679a1.815,1.815,0,0,0-1.811,1.837A1.809,1.809,0,0,0,9.3-14.031,1.809,1.809,0,0,0,11.11-15.841Zm7.488-.074c0-4.806-3.116-9.636-9.275-9.636C3.066-25.551,0-20.721,0-15.915c0,4.833,3.066,9.686,9.322,9.686C15.481-6.229,18.6-11.083,18.6-15.915Zm-3.624.074c0,3.116-1.905,6.23-5.651,6.23-3.793,0-5.674-3.113-5.674-6.23,0-3.164,1.882-6.3,5.674-6.3C13.068-22.145,14.973-19,14.973-15.841Zm0,0" transform="translate(0 25.551)" fill="#942826"/>
        </g>
      </g>
    </g>
    <g id="Group_16485" data-name="Group 16485" transform="translate(339.977 410.763)">
      <g id="Group_16484" data-name="Group 16484">
        <g id="Group_16483" data-name="Group 16483" transform="translate(0 0)">
          <path id="Path_10982" data-name="Path 10982" d="M15.989-25.551H12.873a.274.274,0,0,0-.289.216v12.584L3.672-25.48c-.024-.047-.168-.071-.219-.071H.242A.26.26,0,0,0,0-25.335v14.468H3.7v-8.165L12.584-6.3c.024.05.168.074.219.074h3.187a.247.247,0,0,0,.266-.219V-25.335A.247.247,0,0,0,15.989-25.551Zm0,0" transform="translate(0 25.551)" fill="#942826"/>
        </g>
      </g>
    </g>
    <g id="Group_16488" data-name="Group 16488" transform="translate(363.089 410.763)">
      <g id="Group_16487" data-name="Group 16487">
        <g id="Group_16486" data-name="Group 16486" transform="translate(0 0)">
          <path id="Path_10983" data-name="Path 10983" d="M3.429-25.551H.266A.266.266,0,0,0,0-25.335v7.586H3.7v-4.274c4.2-.219,7.32,1.545,7.32,6.132,0,5.967-4.977,6.209-7.32,6.112v-4.251H0v7.583a.265.265,0,0,0,.266.219H3.429c4.806,0,11.3-1.4,11.3-9.662C14.734-24.464,8.141-25.551,3.429-25.551Zm0,0" transform="translate(0 25.551)" fill="#942826"/>
        </g>
      </g>
    </g>
    <g id="Group_16491" data-name="Group 16491" transform="translate(378.569 410.762)">
      <g id="Group_16490" data-name="Group 16490" transform="translate(0)">
        <g id="Group_16489" data-name="Group 16489" transform="translate(0 0)">
          <path id="Path_10984" data-name="Path 10984" d="M15.168-6.519,7.825-25.407a.271.271,0,0,0-.481,0L.024-6.519c-.071.145.024.289.242.289H3.574a.241.241,0,0,0,.242-.145L7.583-17.147,11.4-6.375a.233.233,0,0,0,.219.145H14.95C15.121-6.23,15.239-6.375,15.168-6.519Zm0,0" transform="translate(-0.001 25.553)" fill="#942826"/>
        </g>
      </g>
    </g>
    <g id="Group_16494" data-name="Group 16494" transform="translate(394.508 410.763)">
      <g id="Group_16493" data-name="Group 16493">
        <g id="Group_16492" data-name="Group 16492" transform="translate(0 0)">
          <path id="Path_10985" data-name="Path 10985" d="M3.985-18.547v12.1a.247.247,0,0,0,.266.219H7.367a.274.274,0,0,0,.289-.219v-12.1Zm-3.719-3.7H11.352c.168,0,.266-.1.266-.219v-2.874a.247.247,0,0,0-.266-.216H.266A.266.266,0,0,0,0-25.335v2.874A.247.247,0,0,0,.266-22.242Zm0,0" transform="translate(0 25.551)" fill="#942826"/>
        </g>
      </g>
    </g>
    <g id="Group_16497" data-name="Group 16497" transform="translate(406.705 410.762)">
      <g id="Group_16496" data-name="Group 16496" transform="translate(0)">
        <g id="Group_16495" data-name="Group 16495" transform="translate(0 0)">
          <path id="Path_10986" data-name="Path 10986" d="M15.168-6.519,7.825-25.407a.271.271,0,0,0-.481,0L.024-6.519c-.071.145.024.289.242.289H3.574a.241.241,0,0,0,.242-.145L7.583-17.147,11.4-6.375a.233.233,0,0,0,.219.145H14.95C15.121-6.23,15.239-6.375,15.168-6.519Zm0,0" transform="translate(-0.001 25.553)" fill="#942826"/>
        </g>
      </g>
    </g>
    <g id="Group_16500" data-name="Group 16500" transform="translate(428.509 410.761)">
      <g id="Group_16499" data-name="Group 16499">
        <g id="Group_16498" data-name="Group 16498" transform="translate(0 0)">
          <path id="Path_10987" data-name="Path 10987" d="M11.039-9.78c-2.342.1-7.32-.145-7.32-6.112,0-4.587,3.116-6.351,7.32-6.132v4.274h3.7v-7.586a.247.247,0,0,0-.266-.216h-3.14C6.593-25.551,0-24.464,0-15.892,0-7.63,6.522-6.229,11.328-6.229h3.14a.247.247,0,0,0,.266-.219V-9.78Zm0,0" transform="translate(0 25.551)" fill="#942826"/>
        </g>
      </g>
    </g>
    <g id="Group_16503" data-name="Group 16503" transform="translate(443.99 410.761)">
      <g id="Group_16502" data-name="Group 16502" transform="translate(0)">
        <g id="Group_16501" data-name="Group 16501" transform="translate(0 0)">
          <path id="Path_10988" data-name="Path 10988" d="M11.11-15.841A1.815,1.815,0,0,0,9.3-17.679a1.815,1.815,0,0,0-1.811,1.837A1.809,1.809,0,0,0,9.3-14.031,1.809,1.809,0,0,0,11.11-15.841Zm7.488-.074c0-4.806-3.116-9.636-9.275-9.636C3.066-25.551,0-20.721,0-15.915c0,4.833,3.066,9.686,9.322,9.686C15.481-6.229,18.6-11.083,18.6-15.915Zm-3.624.074c0,3.116-1.905,6.23-5.651,6.23-3.793,0-5.674-3.113-5.674-6.23,0-3.164,1.882-6.3,5.674-6.3C13.068-22.145,14.973-19,14.973-15.841Zm0,0" transform="translate(0 25.551)" fill="#942826"/>
        </g>
      </g>
    </g>
    <g id="Group_16506" data-name="Group 16506" transform="translate(463.503 410.761)">
      <g id="Group_16505" data-name="Group 16505">
        <g id="Group_16504" data-name="Group 16504" transform="translate(0 0)">
          <path id="Path_10989" data-name="Path 10989" d="M10.433-9.827H0v3.379a.265.265,0,0,0,.266.219H10.433a.245.245,0,0,0,.266-.219v-3.14A.247.247,0,0,0,10.433-9.827ZM3.7-13.523V-25.335a.24.24,0,0,0-.242-.216H.266A.266.266,0,0,0,0-25.335v11.813Zm0,0" transform="translate(0 25.551)" fill="#942826"/>
        </g>
      </g>
    </g>
    <g id="Group_16509" data-name="Group 16509" transform="translate(474.757 410.761)">
      <g id="Group_16508" data-name="Group 16508">
        <g id="Group_16507" data-name="Group 16507" transform="translate(0 0)">
          <path id="Path_10990" data-name="Path 10990" d="M10.433-9.827H0v3.379a.265.265,0,0,0,.266.219H10.433a.245.245,0,0,0,.266-.219v-3.14A.247.247,0,0,0,10.433-9.827ZM3.7-13.523V-25.335a.24.24,0,0,0-.242-.216H.266A.266.266,0,0,0,0-25.335v11.813Zm0,0" transform="translate(0 25.551)" fill="#942826"/>
        </g>
      </g>
    </g>
    <g id="Group_16512" data-name="Group 16512" transform="translate(486.011 410.761)">
      <g id="Group_16511" data-name="Group 16511">
        <g id="Group_16510" data-name="Group 16510" transform="translate(0 0)">
          <path id="Path_10991" data-name="Path 10991" d="M9.178-9.827H3.7v-4.348h7.583a.263.263,0,0,0,.266-.219V-17.46a.245.245,0,0,0-.266-.219H3.7V-22.05H9.178v-3.5H.266A.266.266,0,0,0,0-25.335V-6.448a.265.265,0,0,0,.266.219H9.178Zm0,0" transform="translate(0 25.551)" fill="#942826"/>
        </g>
      </g>
    </g>
    <g id="Group_16515" data-name="Group 16515" transform="translate(498.135 410.761)">
      <g id="Group_16514" data-name="Group 16514">
        <g id="Group_16513" data-name="Group 16513" transform="translate(0 0)">
          <path id="Path_10992" data-name="Path 10992" d="M11.039-9.78c-2.342.1-7.32-.145-7.32-6.112,0-4.587,3.116-6.351,7.32-6.132v4.274h3.7v-7.586a.247.247,0,0,0-.266-.216h-3.14C6.593-25.551,0-24.464,0-15.892,0-7.63,6.522-6.229,11.328-6.229h3.14a.247.247,0,0,0,.266-.219V-9.78Zm0,0" transform="translate(0 25.551)" fill="#942826"/>
        </g>
      </g>
    </g>
    <g id="Group_16518" data-name="Group 16518" transform="translate(513.615 410.761)">
      <g id="Group_16517" data-name="Group 16517">
        <g id="Group_16516" data-name="Group 16516" transform="translate(0 0)">
          <path id="Path_10993" data-name="Path 10993" d="M3.985-18.547v12.1a.247.247,0,0,0,.266.219H7.367a.274.274,0,0,0,.289-.219v-12.1Zm-3.719-3.7H11.352c.168,0,.266-.1.266-.219v-2.874a.247.247,0,0,0-.266-.216H.266A.266.266,0,0,0,0-25.335v2.874A.247.247,0,0,0,.266-22.242Zm0,0" transform="translate(0 25.551)" fill="#942826"/>
        </g>
      </g>
    </g>
    <g id="Group_16521" data-name="Group 16521" transform="translate(525.811 410.761)">
      <g id="Group_16520" data-name="Group 16520">
        <g id="Group_16519" data-name="Group 16519" transform="translate(0 0)">
          <path id="Path_10994" data-name="Path 10994" d="M7.875-9.538H5.94V-25.551h-3.7V-9.538H.266A.247.247,0,0,0,0-9.322v2.874a.265.265,0,0,0,.266.219H7.875a.247.247,0,0,0,.266-.219V-9.322C8.141-9.44,8.043-9.538,7.875-9.538Zm0,0" transform="translate(0 25.551)" fill="#942826"/>
        </g>
      </g>
    </g>
    <g id="Group_16524" data-name="Group 16524" transform="translate(534.361 410.761)">
      <g id="Group_16523" data-name="Group 16523" transform="translate(0)">
        <g id="Group_16522" data-name="Group 16522" transform="translate(0 0)">
          <path id="Path_10995" data-name="Path 10995" d="M11.11-15.841A1.815,1.815,0,0,0,9.3-17.679a1.815,1.815,0,0,0-1.811,1.837A1.809,1.809,0,0,0,9.3-14.031,1.809,1.809,0,0,0,11.11-15.841Zm7.488-.074c0-4.806-3.116-9.636-9.275-9.636C3.066-25.551,0-20.721,0-15.915c0,4.833,3.066,9.686,9.322,9.686C15.481-6.229,18.6-11.083,18.6-15.915Zm-3.624.074c0,3.116-1.905,6.23-5.651,6.23-3.793,0-5.674-3.113-5.674-6.23,0-3.164,1.882-6.3,5.674-6.3C13.068-22.145,14.973-19,14.973-15.841Zm0,0" transform="translate(0 25.551)" fill="#942826"/>
        </g>
      </g>
    </g>
    <g id="Group_16527" data-name="Group 16527" transform="translate(553.874 410.761)">
      <g id="Group_16526" data-name="Group 16526">
        <g id="Group_16525" data-name="Group 16525" transform="translate(0 0)">
          <path id="Path_10996" data-name="Path 10996" d="M15.989-25.551H12.873a.274.274,0,0,0-.289.216v12.584L3.672-25.48c-.024-.047-.168-.071-.219-.071H.242A.26.26,0,0,0,0-25.335v14.468H3.7v-8.165L12.584-6.3c.024.05.168.074.219.074h3.187a.247.247,0,0,0,.266-.219V-25.335A.247.247,0,0,0,15.989-25.551Zm0,0" transform="translate(0 25.551)" fill="#942826"/>
        </g>
      </g>
    </g>
  </g>
</svg>
