<svg id="file-tray-full" xmlns="http://www.w3.org/2000/svg" width="18.143" height="15.551" viewBox="0 0 18.143 15.551">
  <path id="Path_10397" data-name="Path 10397" d="M50.129,72.29l-1.3-6.148A2.475,2.475,0,0,0,46.255,64H35.888a2.587,2.587,0,0,0-1.7.565,2.629,2.629,0,0,0-.874,1.575l-1.3,6.15a.674.674,0,0,0-.013.134v4.536a2.592,2.592,0,0,0,2.592,2.592H47.551a2.592,2.592,0,0,0,2.592-2.592V72.423A.675.675,0,0,0,50.129,72.29ZM34.578,66.4V66.39A1.188,1.188,0,0,1,35.886,65.3H46.255a1.181,1.181,0,0,1,1.307,1.09.107.107,0,0,0,0,.016l1.091,5.179a.162.162,0,0,1-.159.2H43.663a.645.645,0,0,0-.648.641,1.944,1.944,0,0,1-3.888,0,.645.645,0,0,0-.648-.641H33.646a.162.162,0,0,1-.159-.2Z" transform="translate(-32 -64)" fill="gray"/>
  <path id="Path_10398" data-name="Path 10398" d="M137.719,129.3h-9.071a.648.648,0,0,1,0-1.3h9.071a.648.648,0,0,1,0,1.3Z" transform="translate(-124.112 -125.408)" fill="gray"/>
  <path id="Path_10399" data-name="Path 10399" d="M123.015,193.3H112.648a.648.648,0,1,1,0-1.3h10.367a.648.648,0,0,1,0,1.3Z" transform="translate(-108.76 -186.816)" fill="gray"/>
</svg>
