<svg id="stats-chart" xmlns="http://www.w3.org/2000/svg" width="16.847" height="19.439" viewBox="0 0 16.847 19.439">
  <path id="Path_10401" data-name="Path 10401" d="M50.268,311.775h-1.3A.972.972,0,0,1,48,310.8v-5.832a.972.972,0,0,1,.972-.972h1.3a.972.972,0,0,1,.972.972V310.8A.972.972,0,0,1,50.268,311.775Z" transform="translate(-48 -292.337)" fill="#fff"/>
  <path id="Path_10402" data-name="Path 10402" d="M274.268,219.663h-1.3a.972.972,0,0,1-.972-.972v-9.719a.972.972,0,0,1,.972-.972h1.3a.972.972,0,0,1,.972.972v9.719A.972.972,0,0,1,274.268,219.663Z" transform="translate(-262.929 -200.225)" fill="#fff"/>
  <path id="Path_10403" data-name="Path 10403" d="M386.268,112.2h-1.3a.972.972,0,0,1-.972-.972V96.972a.972.972,0,0,1,.972-.972h1.3a.972.972,0,0,1,.972.972v14.255A.972.972,0,0,1,386.268,112.2Z" transform="translate(-370.393 -92.76)" fill="#fff"/>
  <path id="Path_10404" data-name="Path 10404" d="M162.268,35.439h-1.3a.972.972,0,0,1-.972-.972V16.972a.972.972,0,0,1,.972-.972h1.3a.972.972,0,0,1,.972.972V34.467A.972.972,0,0,1,162.268,35.439Z" transform="translate(-155.464 -16)" fill="#fff"/>
</svg>
