<svg xmlns="http://www.w3.org/2000/svg" width="18.519" height="15.29" viewBox="0 0 18.519 15.29">
  <path id="wifi" d="M10.354,13.188A2.547,2.547,0,1,0,12.9,15.735,2.547,2.547,0,0,0,10.354,13.188Zm0,3.4a.849.849,0,1,1,.849-.849A.849.849,0,0,1,10.354,16.585Zm0-6.793a6,6,0,0,0-4.2,1.741.847.847,0,1,0,1.2,1.2,4.245,4.245,0,0,1,6.012,0,.862.862,0,1,0,1.24-1.2A6,6,0,0,0,10.354,9.792Zm0-3.4A9.408,9.408,0,0,0,3.749,9.129a.853.853,0,0,0,1.206,1.206,7.642,7.642,0,0,1,10.8,0A.853.853,0,1,0,16.96,9.129,9.408,9.408,0,0,0,10.354,6.4Zm9.009.331a12.736,12.736,0,0,0-18.018,0A.853.853,0,0,0,2.551,7.932a11.038,11.038,0,0,1,15.606,0,.853.853,0,1,0,1.206-1.206Z" transform="translate(-1.096 -2.993)" fill="#007c3d"/>
</svg>
