<svg xmlns="http://www.w3.org/2000/svg" width="18.518" height="17.001" viewBox="0 0 18.518 17.001">
  <path id="wifi-slash" d="M6.046,4.982h0L3.319,2.246A.853.853,0,0,0,2.112,3.452L4.041,5.4A12.923,12.923,0,0,0,1.356,7.428a.85.85,0,0,0,1.2,1.206,11.1,11.1,0,0,1,2.753-2L6.573,7.947A9.159,9.159,0,0,0,3.752,9.875a.85.85,0,1,0,1.206,1.189,7.477,7.477,0,0,1,2.931-1.8l1.376,1.368a6.007,6.007,0,0,0-3.11,1.648.85.85,0,1,0,1.206,1.189,4.248,4.248,0,0,1,3-1.274,3.509,3.509,0,0,1,.535.042l6.508,6.508a.853.853,0,1,0,1.206-1.206Zm4.316,8.912a2.549,2.549,0,1,0,2.549,2.549A2.549,2.549,0,0,0,10.362,13.894Zm0,3.4a.85.85,0,1,1,.85-.85A.85.85,0,0,1,10.362,17.292Zm9.014-9.864A12.744,12.744,0,0,0,8.909,3.784a.855.855,0,0,0,.187,1.7,11.1,11.1,0,0,1,9.082,3.152.85.85,0,1,0,1.2-1.206Zm-3.611,3.6a.85.85,0,0,0,1.206-1.189,9.133,9.133,0,0,0-4.112-2.4.85.85,0,1,0-.442,1.631,7.6,7.6,0,0,1,3.347,1.954Z" transform="translate(-1.109 -1.996)" fill="#979dac"/>
</svg>
